<svg width="170" height="30" viewBox="0 0 170 30" fill="none" xmlns="http://www.w3.org/2000/svg">
<path d="M25.0798 0.68L23.9598 6.96H12.6398L11.7598 12H20.1998L19.1998 17.92H10.7198L8.75981 29H0.879814L5.83981 0.68H25.0798ZM36.1808 0.68L31.2208 29H23.3408L28.3008 0.68H36.1808ZM61.8473 0.68L60.7273 6.96H53.1273L49.2473 29H41.4073L45.2473 6.96H37.7273L38.8073 0.68H61.8473ZM82.9136 7.84C82.5936 9.65333 81.8469 11.12 80.6736 12.24C79.5002 13.36 78.1269 14.08 76.5536 14.4C78.0202 14.72 79.1669 15.3867 79.9936 16.4C80.8469 17.3867 81.2736 18.6 81.2736 20.04C81.2736 20.4667 81.2336 20.92 81.1536 21.4C80.7536 23.6933 79.6469 25.5333 77.8336 26.92C76.0469 28.3067 73.6736 29 70.7136 29H60.2336L65.1936 0.799998H75.5136C77.9936 0.799998 79.8602 1.29333 81.1136 2.28C82.3936 3.26666 83.0336 4.62666 83.0336 6.36C83.0336 6.81333 82.9936 7.30667 82.9136 7.84ZM79.0736 8.44C79.1269 8.2 79.1536 7.85333 79.1536 7.4C79.1536 6.28 78.7536 5.4 77.9536 4.76C77.1536 4.12 75.9136 3.8 74.2336 3.8H68.3136L66.6736 13.16H72.7536C74.5402 13.16 75.9669 12.7467 77.0336 11.92C78.1269 11.0933 78.8069 9.93333 79.0736 8.44ZM77.5136 20.92C77.5669 20.68 77.5936 20.3333 77.5936 19.88C77.5936 18.6267 77.1269 17.6533 76.1936 16.96C75.2869 16.24 73.9802 15.88 72.2736 15.88H66.1936L64.3936 25.96H70.5136C72.4602 25.96 74.0469 25.52 75.2736 24.64C76.5002 23.76 77.2469 22.52 77.5136 20.92ZM101.774 0.439998C104.174 0.439998 106.268 0.933331 108.054 1.92C109.841 2.88 111.214 4.25333 112.174 6.04C113.134 7.8 113.614 9.85333 113.614 12.2C113.614 13.32 113.521 14.4 113.334 15.44C112.854 18.1333 111.868 20.5333 110.374 22.64C108.908 24.7467 107.054 26.3867 104.814 27.56C102.601 28.7333 100.174 29.32 97.5342 29.32C95.0809 29.32 92.9609 28.84 91.1742 27.88C89.3875 26.8933 88.0142 25.52 87.0542 23.76C86.1209 21.9733 85.6542 19.92 85.6542 17.6C85.6542 16.4533 85.7475 15.36 85.9342 14.32C86.4142 11.6267 87.3875 9.22667 88.8542 7.12C90.3475 5.01333 92.2142 3.37333 94.4542 2.2C96.6942 1.02667 99.1342 0.439998 101.774 0.439998ZM101.454 3.84C99.5342 3.84 97.7342 4.28 96.0542 5.16C94.4009 6.04 93.0009 7.30667 91.8542 8.96C90.7075 10.6133 89.9342 12.5333 89.5342 14.72C89.3742 15.6 89.2942 16.4533 89.2942 17.28C89.2942 19.9467 90.0675 22.0533 91.6142 23.6C93.1609 25.1467 95.2409 25.92 97.8542 25.92C99.7475 25.92 101.521 25.48 103.174 24.6C104.854 23.6933 106.268 22.4133 107.414 20.76C108.588 19.1067 109.361 17.1867 109.734 15C109.894 14.12 109.974 13.2667 109.974 12.44C109.974 9.77333 109.201 7.68 107.654 6.16C106.108 4.61333 104.041 3.84 101.454 3.84ZM142.02 14.88C141.514 17.7333 140.5 20.2267 138.98 22.36C137.46 24.4667 135.487 26.1067 133.06 27.28C130.634 28.4267 127.86 29 124.74 29H115.78L120.74 0.799998H129.7C133.78 0.799998 136.9 1.76 139.06 3.68C141.22 5.57333 142.3 8.22667 142.3 11.64C142.3 12.76 142.207 13.84 142.02 14.88ZM125.02 25.72C128.727 25.72 131.714 24.7733 133.98 22.88C136.274 20.96 137.714 18.2933 138.3 14.88C138.46 13.9467 138.54 13.0667 138.54 12.24C138.54 9.6 137.714 7.57333 136.06 6.16C134.434 4.72 132.034 4 128.86 4H123.82L119.98 25.72H125.02ZM169.452 0.799998L157.132 18.32L155.252 29H151.572L153.452 18.32L147.252 0.799998H151.492L155.972 14.44L165.292 0.799998H169.452Z" fill="#E2F163"/>
</svg>
